<svg xmlns="http://www.w3.org/2000/svg" width="60" height="33" viewBox="0 0 60 33"><g fill="#EA1D2C" fill-rule="evenodd"><path d="M.12 18.792h4.53L7.2 5.806H2.67zM3.06 3.758h4.53L8.34.031H3.78zm3.39 18.7h4.53l2.76-14.055h3.3l.51-2.597h-3.33l.12-.612c.21-1.1.57-2.383 2.28-2.383 1.02 0 1.98.122 2.94.52l.51-2.72c-1.02-.397-2.16-.58-3.27-.58-3.66 0-6.15 2.26-7.08 5.775H8.13l-.48 2.597h1.56L6.45 22.458z"/><path d="M20.85 19.097c5.37 0 9.09-5.072 9.09-9.228 0-3.025-2.76-4.338-5.37-4.338-5.88 0-9.09 5.469-9.09 9.227 0 2.995 2.76 4.34 5.37 4.34m14.31-.001c5.37 0 9.09-5.072 9.09-9.228 0-3.025-2.76-4.338-5.37-4.338-5.88 0-9.09 5.469-9.09 9.227 0 2.995 2.79 4.34 5.37 4.34m16.47-.306h4.5L59.88.03h-4.53l-1.2 5.775c-.6-.123-1.2-.214-1.83-.214-4.44 0-8.49 5.866-8.49 10.052 0 1.712 1.08 3.423 2.91 3.423 2.61 0 4.41-1.314 5.16-2.567h.27l-.54 2.292zM37.65 28.57c-3.33 2.933-7.77 4.43-12.57 4.124-6.09-.397-10.29-5.286-11.16-10.236h.3c1.38 3.178 4.71 6.08 8.88 6.57 4.08.458 9.09-1.436 11.82-4.186l-3.09-2.414 9.15.03L39 32.511l-1.35-3.942z"/></g></svg>